<svg aria-hidden="true" style="position:absolute;width:0;height:0;overflow:hidden" xmlns="http://www.w3.org/2000/svg"><defs><symbol id="icon-arrow-left" viewBox="0 0 20 32"><path fill="none" opacity=".4" stroke="#fff" style="stroke:var(--color1, #fff)" stroke-width="1.524" d="M18.286 1.524 1.524 16.762l16.762 14.476"/></symbol><symbol id="icon-arrow-right" viewBox="0 0 20 32"><path fill="none" stroke="#fff" style="stroke:var(--color1, #fff)" stroke-width="1.524" d="m.762 1.524 16.762 15.238L.762 31.238"/></symbol><symbol id="icon-instagram" viewBox="0 0 32 32"><path d="M23.999 0h-16c-4.399 0-8 3.6-8 8v16c0 4.398 3.6 8 8 8h16c4.4 0 8-3.602 8-8V8c0-4.399-3.6-8-8-8zm5.333 24a5.339 5.339 0 0 1-5.333 5.333h-16A5.34 5.34 0 0 1 2.666 24V8a5.34 5.34 0 0 1 5.333-5.333h16A5.338 5.338 0 0 1 29.332 8v16z"/><path d="M24.666 9.332a2 2 0 1 0 .001-3.999 2 2 0 0 0-.001 3.999zM15.617 8a8.001 8.001 0 1 0 .002 16 8.001 8.001 0 0 0-.002-16zm0 13.334a5.334 5.334 0 1 1 .001-10.667 5.334 5.334 0 0 1-.001 10.667z"/></symbol><symbol id="icon-ebay" viewBox="0 0 81 32"><path fill="#666" style="fill:var(--color2, #666)" d="M24.335 9.632s2.218-2.923 7.368-2.896c5.152.027 9.928 3.475 9.817 9.408a11.376 11.376 0 0 1-.138 1.571c1.378-3.71 8.184-4.216 10.217-4.229 1.196 0 4.783-.013 4.783-.013.019-2.409-.744-4.021-4.921-4.093-3.561-.066-4.475 1.711-4.691 2.409h-4.362c1.112-5.723 9.336-5.026 9.336-5.026 8.567.336 8.777 4.741 8.876 6.816l.011.222v11.461l-3.796.02-.17-3.085c-1.619 1.954-3.796 3.045-7.619 3.066-3.722.019-8.449-1.526-7.907-6.434-1.18 4.197-4.947 6.434-9.521 6.434-5.465 0-7.335-2.92-7.335-2.92l-.172 2.92H20.21v-8.421H4.111s.231 5.724 6.112 5.834c4.573.081 5.401-2.998 5.401-2.998l4.224-.014s-.448 5.599-9.644 5.599C-.494 25.263.006 16.342.006 16.342c-.052-1.981-.013-9.605 10.099-9.605 8.462 0 9.905 5.777 10.105 8.595V0h4.125v9.632zm.027 6.44s-.106 6.626 6.402 6.547c6.499-.08 6.513-6.409 6.513-6.409s.098-6.986-6.526-6.822c-6.624.164-6.388 6.684-6.388 6.684zM10.354 9.349c-5.816 0-6.105 4.994-6.105 4.994h11.896s0-5.001-5.79-4.994zm35.027 10.264c.244 3.151 4.382 3.144 4.382 3.144 7.414.091 6.658-6.65 6.663-6.65l-4.682.005s-6.619.138-6.363 3.502z"/><path fill="#666" style="fill:var(--color2, #666)" d="M58.001 6.737h4.722l6.916 13.784 6.934-13.784h4.269L68.335 32h-4.571l3.62-7.52-9.383-17.744z"/></symbol><symbol id="icon-cisco" viewBox="0 0 59 32"><path fill="#666" style="fill:var(--color2, #666)" d="M40.31 23.703a4.547 4.547 0 0 0-2.186-.55c-1.68 0-2.845 1.169-2.845 2.746 0 1.53 1.115 2.749 2.845 2.749a4.593 4.593 0 0 0 2.186-.547v2.764a8.375 8.375 0 0 1-2.368.366c-2.923 0-5.488-2.015-5.488-5.333 0-3.074 2.321-5.329 5.488-5.329a7.899 7.899 0 0 1 2.368.37v2.764zm-27.122 0a4.508 4.508 0 0 0-2.183-.55c-1.683 0-2.848 1.169-2.848 2.746 0 1.53 1.116 2.749 2.848 2.749a4.558 4.558 0 0 0 2.183-.547v2.764a8.318 8.318 0 0 1-2.37.366c-2.92 0-5.482-2.015-5.482-5.333 0-3.074 2.321-5.329 5.483-5.329a7.849 7.849 0 0 1 2.37.37v2.764zm35.295-.511a2.652 2.652 0 0 0-1.915.787 2.637 2.637 0 0 0-.58.882 2.64 2.64 0 0 0-.191 1.039 2.672 2.672 0 0 0 1.649 2.51c.329.135.682.203 1.038.2a2.675 2.675 0 0 0 1.916-.788 2.67 2.67 0 0 0 .772-1.922 2.658 2.658 0 0 0-1.651-2.508 2.67 2.67 0 0 0-1.037-.2zm5.441 2.708c0 2.946-2.274 5.332-5.44 5.332s-5.439-2.387-5.439-5.333c0-2.94 2.272-5.329 5.438-5.329s5.441 2.389 5.441 5.33zm-24.712-2.807c-.039-.012-1.133-.314-2.031-.314-1.041 0-1.607.349-1.607.844 0 .627.764.846 1.191.981l.717.228c1.687.536 2.455 1.691 2.455 2.946 0 2.587-2.275 3.456-4.263 3.456a15.617 15.617 0 0 1-2.804-.281v-2.37c.229.058 1.319.384 2.453.384 1.293 0 1.887-.379 1.887-.961 0-.522-.514-.823-1.159-1.026-.156-.053-.393-.127-.555-.179-1.447-.458-2.654-1.309-2.654-3.012 0-1.926 1.442-3.219 3.837-3.219.854.012 1.704.121 2.532.327v2.198zM19.358 31.05H16.76V20.753h2.598V31.05zM2.201 8.778c.242.241.378.568.379.909v2.703a1.293 1.293 0 0 1-1.29 1.257A1.29 1.29 0 0 1 0 12.39V9.686a1.289 1.289 0 0 1 2.202-.908zM9.567 5.646c.065.157.098.324.098.494v6.25a1.29 1.29 0 0 1-2.58 0V6.14a1.292 1.292 0 0 1 2.484-.494zM16.373.377c.242.241.378.568.379.909v13.673a1.293 1.293 0 0 1-1.29 1.257 1.29 1.29 0 0 1-1.29-1.257V1.286A1.287 1.287 0 0 1 15.463 0c.341 0 .669.135.911.376zM23.74 5.646c.065.157.098.324.098.494v-.002 6.251a1.29 1.29 0 0 1-2.58 0v-6.25a1.292 1.292 0 0 1 2.483-.494zM30.54 8.779c.24.241.375.567.375.908v2.703a1.288 1.288 0 0 1-2.195.909 1.286 1.286 0 0 1-.377-.909V9.686a1.285 1.285 0 0 1 1.29-1.283c.34 0 .667.136.907.377zM37.616 5.252c.24.234.379.553.388.888v6.25a1.278 1.278 0 0 1-.377.909 1.294 1.294 0 0 1-.909.377 1.286 1.286 0 0 1-1.286-1.286V6.14a1.289 1.289 0 0 1 1.286-1.253c.336 0 .658.131.898.365zM44.718.377c.241.241.377.568.377.909v13.673a1.29 1.29 0 0 1-1.286 1.343 1.291 1.291 0 0 1-1.133-.676 1.29 1.29 0 0 1-.153-.667V1.286a1.288 1.288 0 0 1 2.195-.909zM52.083 5.645c.066.157.1.325.1.496v6.25a1.281 1.281 0 0 1-.383.916c-.121.12-.265.214-.423.279s-.327.096-.497.094c-.169 0-.336-.034-.493-.098s-.298-.16-.417-.279c-.119-.12-.214-.262-.279-.418s-.098-.324-.097-.493V6.141a1.285 1.285 0 0 1 1.285-1.286 1.285 1.285 0 0 1 .919.373c.121.12.217.262.283.419zM58.882 8.777c.241.241.377.569.377.91l-.001 2.703a1.267 1.267 0 0 1-.376.911 1.307 1.307 0 0 1-.911.379 1.28 1.28 0 0 1-1.19-.796 1.264 1.264 0 0 1-.097-.493V9.688a1.288 1.288 0 0 1 2.197-.91zM57.772 29.854zM57.312 29.854zM57.312 31.049zM57.123 31.049zM57.123 29.855zM56.662 29.855zM56.662 29.693zM58.163 29.693zM58.569 30.805zM58.576 30.805zM58.968 29.694zM59.258 29.694zM59.258 31.049zM59.065 31.049zM59.065 29.938zM59.058 29.938zM58.647 31.049zM58.468 31.049zM58.066 29.938zM58.057 29.938zM58.057 31.049zM57.868 31.049zM58.163 29.693l.406 1.112h.007l.393-1.111h.29v1.355h-.193v-1.111h-.007l-.411 1.111h-.178l-.402-1.111h-.009v1.111h-.189v-1.356h.295zM57.772 29.854h-.459v1.194h-.189v-1.193h-.461v-.162h1.109v.161z"/></symbol><symbol id="icon-star" viewBox="0 0 36 32"><path fill="#fbb040" style="fill:var(--color3, #fbb040)" d="M18.114 1.454a.534.534 0 0 1 1.008 0l3.552 10.248a.533.533 0 0 0 .504.359h11.417c.525 0 .734.679.3.974l-9.176 6.25a.533.533 0 0 0-.204.615l3.519 10.152c.168.485-.38.905-.804.615l-9.311-6.342a.53.53 0 0 0-.6 0l-9.311 6.342a.533.533 0 0 1-.804-.615L11.723 19.9a.532.532 0 0 0-.204-.615l-9.176-6.25c-.434-.296-.225-.974.3-.974H14.06c.227 0 .43-.144.504-.359l3.552-10.248z"/></symbol><symbol id="icon-icon3" viewBox="0 0 27 32"><path fill="#fff" style="fill:var(--color1, #fff)" d="M21.093 32V6.392H0V32h4.913v-1.519c0-1.91 1.498-3.467 3.312-3.467h4.642c1.816 0 3.325 1.557 3.325 3.467V32h4.901zM5.824 22.845a1.107 1.107 0 0 1-.283.741.977.977 0 0 1-.702.299H2.512a.97.97 0 0 1-.911-.637 1.125 1.125 0 0 1-.074-.403v-2.428a1.107 1.107 0 0 1 .283-.741.977.977 0 0 1 .702-.299h2.327a.97.97 0 0 1 .911.637c.049.126.074.266.074.403v2.428zm0-7.181c0 .136-.024.277-.074.403s-.118.241-.209.337a.977.977 0 0 1-.702.299H2.512a.97.97 0 0 1-.911-.636 1.125 1.125 0 0 1-.074-.403v-2.441c0-.136.024-.264.074-.39s.118-.241.209-.338c.091-.096.201-.182.32-.234s.253-.078.382-.078h2.327c.129 0 .262.026.382.078s.229.138.32.234.16.212.209.338.074.253.074.39v2.441zm2.574-2.558a1.107 1.107 0 0 1 .283-.741.977.977 0 0 1 .702-.299h2.081a.97.97 0 0 1 .911.637c.049.126.074.266.074.403v2.181c0 .136-.024.264-.074.389s-.118.241-.209.338c-.091.096-.201.181-.32.233s-.253.078-.382.078H9.383c-.129 0-.263-.026-.382-.078a1.029 1.029 0 0 1-.529-.571 1.055 1.055 0 0 1-.074-.389v-2.181zm4.112 9.428c0 .136-.024.264-.074.39a1.049 1.049 0 0 1-.529.572.95.95 0 0 1-.382.078H9.382c-.129 0-.263-.026-.382-.078s-.229-.137-.32-.234c-.091-.096-.16-.212-.209-.338s-.074-.253-.074-.39v-2.246c0-.136.024-.277.074-.403s.118-.241.209-.337a.977.977 0 0 1 .702-.299h2.143a.97.97 0 0 1 .911.636c.049.125.074.267.074.403v2.246zm2.758-9.311c0-.136.024-.264.074-.39s.118-.241.209-.338c.091-.096.201-.182.32-.234s.253-.078.382-.078h2.327c.129 0 .262.026.382.078s.229.138.32.234.16.212.209.338.074.253.074.39v2.441c0 .136-.024.277-.074.403s-.118.241-.209.337a.977.977 0 0 1-.702.299h-2.327a.97.97 0 0 1-.911-.636 1.125 1.125 0 0 1-.074-.403v-2.441zm.604 10.583c-.119-.052-.229-.125-.32-.221s-.16-.212-.209-.338a1.125 1.125 0 0 1-.074-.403v-2.428a1.107 1.107 0 0 1 .283-.741.977.977 0 0 1 .702-.299h2.327a.97.97 0 0 1 .911.637c.049.126.074.266.074.403v2.428a1.107 1.107 0 0 1-.283.741.977.977 0 0 1-.702.299h-2.327a.962.962 0 0 1-.381-.078zM25.54 0H5.225L1.319 4.313H21.62L25.54 0zM23.062 30.444l3.818-4.216v-24.7l-3.818 4.201v24.715z"/><path fill="#fff" style="fill:var(--color1, #fff)" d="M8.223 29.087c-.747 0-1.344.63-1.344 1.396v1.514h7.337v-1.514c0-.766-.595-1.396-1.348-1.396H8.223z"/></symbol><symbol id="icon-icon2" viewBox="0 0 32 32"><path fill="#fff" style="fill:var(--color1, #fff)" d="M8.88 30.07 6.936 32 0 25.29l4.969-4.898a7.606 7.606 0 0 1 7.844-1.779l1.092.379h6.699a2.125 2.125 0 0 1 1.519.638 2.099 2.099 0 0 1 .596 1.527c-.032.556-.279 1.078-.69 1.457s-.953.586-1.514.577h-4.019c-.218 0-.427.086-.581.239a.815.815 0 0 0 .581 1.393h4.032c.984.005 1.931-.366 2.647-1.036s1.145-1.587 1.198-2.562v-.052l3.73-4.17a2.265 2.265 0 0 1 3.101-.3 2.164 2.164 0 0 1 .253 3.115l-7.446 8.49a5.235 5.235 0 0 1-3.947 1.777l-11.185-.013zm15.375-18.459c0-.411-.165-.806-.457-1.097s-.69-.454-1.105-.454h-2.302V7.774c-.018-.399-.191-.775-.482-1.05a1.571 1.571 0 0 0-2.158 0 1.546 1.546 0 0 0-.482 1.05v2.286h-2.302a1.56 1.56 0 0 0-1.634 1.55 1.56 1.56 0 0 0 1.634 1.55h2.302v2.286c.019.399.191.775.482 1.051s.677.429 1.079.429.788-.154 1.079-.429c.291-.276.463-.652.482-1.05v-2.286h2.302c.414 0 .811-.163 1.104-.453s.458-.684.459-1.095zM9.278 3.017v1.685H7.584c-.305 0-.598.12-.814.335a1.14 1.14 0 0 0 0 1.616c.216.214.509.335.814.335h1.697v1.685c0 .303.121.594.337.808a1.158 1.158 0 0 0 1.628 0 1.14 1.14 0 0 0 .337-.808V6.982h1.687c.305 0 .598-.12.814-.335a1.14 1.14 0 0 0 0-1.616 1.158 1.158 0 0 0-.814-.335h-1.697V3.018c0-.303-.121-.594-.337-.808a1.158 1.158 0 0 0-1.628 0 1.14 1.14 0 0 0-.337.808h.007zM23.798 0c-.262 0-.513.103-.698.287s-.289.433-.289.693v1.45h-1.46c-.262 0-.513.103-.698.287a.977.977 0 0 0 .698 1.673h1.46v1.45c0 .26.104.509.289.693a.99.99 0 0 0 1.685-.693V4.39h1.46a.98.98 0 0 0 .698-.287.98.98 0 0 0 .214-1.068.98.98 0 0 0-.534-.53 1 1 0 0 0-.378-.075h-1.46V.98c0-.26-.104-.509-.289-.693S24.06 0 23.798 0z"/></symbol><symbol id="icon-icon1" viewBox="0 0 32 32"><path fill="#fff" style="fill:var(--color1, #fff)" d="M29.977 31.653a1.185 1.185 0 1 0 1.676-1.676l-1.676 1.676zm1.676-1.676-8.685-8.685-1.676 1.676 8.685 8.685 1.676-1.676zm-7.132-16.531c0 6.117-4.959 11.075-11.075 11.075v2.37c7.426 0 13.446-6.02 13.446-13.446h-2.37zM13.446 24.521c-6.117 0-11.075-4.959-11.075-11.075H.001c0 7.426 6.02 13.446 13.446 13.446v-2.37zM2.37 13.446c0-6.117 4.959-11.075 11.075-11.075V.001C6.019.001-.001 6.021-.001 13.447h2.37zM13.446 2.37c6.117 0 11.075 4.959 11.075 11.075h2.37c0-7.426-6.02-13.446-13.446-13.446v2.37z"/></symbol><symbol id="icon-linkedin" viewBox="0 0 34 32"><path d="M30.398 0H3.376C1.518 0-.002 1.44-.002 3.2v25.6c0 1.76 1.52 3.2 3.378 3.2h27.022c1.858 0 3.378-1.44 3.378-3.2V3.2c0-1.76-1.52-3.2-3.378-3.2zM10.132 27.2H5.065V12.8h5.067v14.4zM7.598 10.08c-1.689 0-3.04-1.28-3.04-2.88s1.351-2.88 3.04-2.88 3.04 1.28 3.04 2.88-1.351 2.88-3.04 2.88zM28.709 27.2h-5.067v-8.48c0-1.28-1.182-2.4-2.533-2.4s-2.533 1.12-2.533 2.4v8.48h-5.067V12.8h5.067v1.92c.844-1.28 2.702-2.24 4.222-2.24 3.209 0 5.911 2.56 5.911 5.6v9.12z"/></symbol><symbol id="icon-twitter" viewBox="0 0 40 32"><path d="M38.921 3.64a16.16 16.16 0 0 1-4.471 1.225A7.714 7.714 0 0 0 37.863.577a15.497 15.497 0 0 1-4.92 1.878A7.775 7.775 0 0 0 27.276 0c-4.296 0-7.754 3.487-7.754 7.761 0 .615.052 1.206.18 1.769-6.45-.315-12.158-3.406-15.992-8.116a7.815 7.815 0 0 0-1.062 3.922 7.771 7.771 0 0 0 3.446 6.448 7.671 7.671 0 0 1-3.506-.956v.085c0 3.77 2.689 6.902 6.216 7.624a7.733 7.733 0 0 1-2.034.255c-.497 0-.998-.028-1.469-.132 1.005 3.073 3.858 5.331 7.25 5.405a15.591 15.591 0 0 1-9.62 3.309c-.636 0-1.247-.028-1.857-.106 3.437 2.216 7.51 3.482 11.903 3.482 14.277 0 22.083-11.827 22.083-22.078 0-.343-.012-.674-.028-1.003 1.54-1.093 2.834-2.458 3.889-4.028z"/></symbol><symbol id="icon-facebook" viewBox="0 0 18 32"><path d="M4.753 17.868H.831c-.634 0-.832-.238-.832-.832v-4.794c0-.634.238-.832.832-.832h3.922V7.924c0-1.585.277-3.09 1.07-4.477C6.655 2.021 7.844 1.07 9.349.515A8.803 8.803 0 0 1 12.4 0h3.883c.555 0 .792.238.792.792v4.517c0 .555-.238.792-.792.792-1.07 0-2.139 0-3.209.04-1.07 0-1.624.515-1.624 1.624-.04 1.189 0 2.338 0 3.566h4.596c.634 0 .872.238.872.872v4.794c0 .634-.198.832-.872.832H11.45v12.916c0 .674-.198.911-.911.911H5.587c-.594 0-.832-.238-.832-.832V17.869z"/></symbol><symbol id="icon-uber" viewBox="0 0 143 32"><path fill="#718087" style="fill:var(--color4, #718087)" d="M24.049.646h5.429V18.25c0 9.262-5.789 12.513-14.189 12.513-8.369 0-14.159-3.251-14.159-12.513V1.351c0-.491.24-.705.72-.705h5.429v17.328c0 5.551 2.4 7.851 8.009 7.851 5.64 0 8.039-2.3 8.039-7.851V1.351c0-.491.24-.705.72-.705zm61.464 4.815v7.422h13.739c.24 0 .33.123.24.368l-1.5 3.803c-.15.337-.36.491-.81.491h-8.069c-2.64 0-3.6.828-3.6 2.638v5.245h18.598c.24 0 .33.123.24.368l-1.56 3.956c-.15.337-.36.491-.81.491H81.613c-1.56 0-2.16-.552-2.16-1.748V2.702c0-1.441.78-2.055 2.82-2.055h21.838c.24 0 .33.123.24.337l-1.56 3.987c-.15.337-.36.491-.81.491H85.512zM68.265 22.053c0 5.919-4.08 8.189-9.809 8.189H43.277c-1.59 0-2.16-.552-2.16-1.748V2.701c0-1.441.75-2.055 2.82-2.055h12.329c5.4 0 10.619.951 10.619 7.514 0 2.822-.99 5.214-3.36 6.471 3.27.889 4.74 3.895 4.74 7.422zm-21.178-9.078h9.629c3.18 0 4.08-1.257 4.08-3.834s-.9-3.803-4.08-3.803h-9.629v7.637zm15.088 8.526c0-2.729-.93-4.079-4.35-4.079h-7.109c-2.64 0-3.63.828-3.63 2.638v5.49h10.739c3.42 0 4.35-1.349 4.35-4.049zm79.792 8.741h-5.52c-.45 0-.63-.184-.81-.491l-5.849-10.796h-5.37c-2.64 0-3.63.828-3.63 2.638v8.649h-5.279c-.48 0-.72-.245-.72-.705V2.701c0-1.441.78-2.055 2.82-2.055h12.389c7.229 0 11.579 1.932 11.579 9.109 0 5.551-2.61 7.729-5.849 8.588l6.509 11.378c.12.184.12.521-.27.521zm-6.479-20.365c0-3.006-.81-4.478-4.59-4.478h-10.109v8.956h10.109c3.78 0 4.59-1.441 4.59-4.478z"/></symbol><symbol id="icon-airbnb" viewBox="0 0 102 32"><path fill="#718087" style="fill:var(--color4, #718087)" d="M53.806 7.947c0 1.14-.913 2.058-2.046 2.058s-2.045-.918-2.045-2.058.881-2.058 2.045-2.058c1.165.032 2.046.95 2.046 2.058zm-8.435 4.148v.507s-.975-1.267-3.052-1.267c-3.43 0-6.106 2.628-6.106 6.269 0 3.609 2.644 6.268 6.106 6.268 2.109 0 3.052-1.298 3.052-1.298v.538c0 .253.189.443.441.443h2.549V11.651h-2.549a.454.454 0 0 0-.441.445zm0 7.629c-.472.697-1.416 1.298-2.549 1.298-2.014 0-3.556-1.266-3.556-3.419s1.542-3.419 3.556-3.419c1.102 0 2.109.633 2.549 1.298v4.242zm4.878-8.073h3.021v11.904h-3.021V11.651zm45.13-.317c-2.077 0-3.053 1.267-3.053 1.267v-6.68h-3.021v17.634h2.549c.252 0 .44-.222.44-.444v-.538s.976 1.298 3.053 1.298c3.431 0 6.105-2.659 6.105-6.268s-2.675-6.27-6.073-6.27zm-.503 9.656c-1.165 0-2.077-.601-2.549-1.298V15.45c.472-.633 1.479-1.298 2.549-1.298 2.014 0 3.556 1.266 3.556 3.419s-1.542 3.419-3.556 3.419zm-7.144-4.495v7.092H84.71v-6.744c0-1.963-.629-2.755-2.328-2.755-.912 0-1.857.475-2.456 1.172v8.295h-3.02V11.651h2.391c.252 0 .441.222.441.443v.507c.881-.918 2.046-1.267 3.21-1.267 1.322 0 2.424.38 3.305 1.14 1.07.887 1.479 2.026 1.479 4.021zm-18.159-5.161c-2.077 0-3.052 1.267-3.052 1.267v-6.68H63.5v17.634h2.549a.452.452 0 0 0 .441-.444v-.538s.976 1.298 3.053 1.298c3.431 0 6.106-2.659 6.106-6.268.031-3.61-2.643-6.27-6.074-6.27zm-.504 9.656c-1.164 0-2.077-.601-2.549-1.298V15.45c.472-.633 1.479-1.298 2.549-1.298 2.015 0 3.556 1.266 3.556 3.419s-1.542 3.419-3.556 3.419zm-8.182-9.656c.912 0 1.385.159 1.385.159v2.817s-2.518-.855-4.091.95v8.326h-3.022V11.651h2.549c.252 0 .44.222.44.443v.507c.567-.665 1.795-1.267 2.738-1.267zM29.51 22.478c-.157-.38-.315-.791-.472-1.14-.252-.57-.504-1.108-.724-1.615l-.032-.032a330.96 330.96 0 0 0-6.955-14.309l-.094-.19c-.258-.493-.51-.989-.755-1.488-.315-.57-.629-1.171-1.133-1.741C18.338.697 16.89 0 15.348 0c-1.574 0-2.99.697-4.028 1.9-.472.57-.819 1.171-1.133 1.741-.246.499-.497.995-.755 1.488l-.095.19c-2.423 4.748-4.784 9.561-6.955 14.309l-.032.063c-.22.507-.472 1.045-.724 1.615-.157.349-.314.728-.472 1.14-.409 1.171-.535 2.279-.378 3.419a6.72 6.72 0 0 0 4.091 5.255 6.416 6.416 0 0 0 2.549.507c.252 0 .566-.032.818-.064a8.255 8.255 0 0 0 3.147-1.076c1.29-.728 2.518-1.773 3.902-3.292 1.385 1.52 2.643 2.564 3.902 3.292a8.301 8.301 0 0 0 3.966 1.14c.881 0 1.762-.158 2.549-.507 2.203-.887 3.745-2.912 4.091-5.255.25-1.108.124-2.215-.285-3.387zm-14.193 1.647c-1.7-2.153-2.801-4.179-3.179-5.888-.157-.728-.189-1.362-.094-1.931.062-.507.252-.95.504-1.33.598-.854 1.605-1.393 2.77-1.393s2.203.507 2.77 1.393c.252.38.44.824.504 1.33.094.57.063 1.235-.095 1.931-.379 1.677-1.48 3.704-3.18 5.888zm12.556 1.488a4.703 4.703 0 0 1-2.864 3.705 4.735 4.735 0 0 1-2.392.316c-.787-.095-1.574-.349-2.392-.823-1.133-.634-2.266-1.615-3.588-3.071 2.077-2.564 3.336-4.907 3.808-6.996.22-.982.252-1.868.157-2.692a5.14 5.14 0 0 0-.85-2.153c-.976-1.425-2.613-2.248-4.438-2.248s-3.462.855-4.437 2.248a5.167 5.167 0 0 0-.85 2.153 6.61 6.61 0 0 0 .157 2.692c.472 2.089 1.762 4.464 3.808 7.028-1.29 1.456-2.455 2.438-3.588 3.071-.818.475-1.605.728-2.391.823a5.02 5.02 0 0 1-2.392-.316 4.702 4.702 0 0 1-2.864-3.705 5.27 5.27 0 0 1 .283-2.469c.094-.317.252-.633.409-1.013.22-.507.472-1.045.724-1.583l.032-.063a345.8 345.8 0 0 1 6.923-14.215l.094-.19c.252-.474.504-.981.755-1.456.252-.507.535-.982.881-1.393.661-.759 1.542-1.171 2.518-1.171s1.857.412 2.518 1.171c.346.413.629.888.881 1.394.252.475.504.982.755 1.456l.095.19a421.407 421.407 0 0 1 6.892 14.246v.032c.252.507.472 1.077.724 1.584.157.379.315.696.409 1.012.251.822.346 1.614.22 2.437z"/></symbol><symbol id="icon-gucc" viewBox="0 0 129 32"><path fill="#718087" style="fill:var(--color4, #718087)" opacity=".8" d="M29.313 21.608v6.611c-2.403 2.113-8.146 3.371-12.422 3.371-4.27 0-16.09-2.645-16.09-15.07S12.051 1.417 16.59 1.417c4.544 0 9.383.824 12.186 2.677v5.815c0 .726-1.002.661-1.002 0-.066-.992-2.737-6.936-9.416-6.806-7.21.146-12.082 5.755-12.082 13.152s4.735 13.748 11.885 13.548c2.321-.065 4.741-.791 5.912-1.756l.027-6.438c0-1.848-1.133-2.509-2.267-2.509-.739 0-.739-1.057 0-1.057h9.745c.734 0 .734 1.122 0 1.057-1.128 0-2.266.661-2.266 2.509zM95.012 9.914c0 .726-.733.661-.733 0-.071-.992-2.737-7.137-9.416-7.001-7.21.141-12.088 5.95-12.088 13.347s4.675 13.943 11.819 13.748c7.144-.201 10.549-7.202 10.818-8.129s.734-.791.734-.065v5.419c-2.934 2.113-8.48 4.362-12.75 4.362s-16.09-2.645-16.09-15.071c0-12.431 11.217-15.401 15.756-15.401 4.544 0 9.148 1.122 11.956 2.97v5.82h-.006zM64.766 1.85c1.067 0 1.067.992 0 .992-1.133 0-2.267.661-2.267 2.509l-.131 14.442c0 6.915-5.666 11.998-12.657 11.998s-12.449-5.083-12.449-11.998V5.351c0-1.853-1.139-2.509-2.272-2.509-1.068 0-1.068-.992 0-.992h9.881c1.068 0 1.068.992 0 .992-1.139 0-2.272.661-2.272 2.509l-.011 16.127c0 4.877 4.029 8.833 8.956 8.833s8.923-4.948 8.923-9.819l-.241-15.141c0-1.853-1.133-2.509-2.272-2.509-1.062 0-1.062-.992 0-.992h6.81zm62.897 8.064c0 .726-.734.661-.734 0-.066-.992-2.737-7.137-9.416-7.001-7.21.141-12.088 5.95-12.088 13.347s4.675 13.943 11.819 13.748c7.144-.195 10.549-7.202 10.818-8.129s.739-.791.739-.065v5.419c-2.94 2.113-8.48 4.362-12.756 4.362-4.27 0-16.09-2.645-16.09-15.071 0-12.431 11.217-15.401 15.761-15.401 4.538 0 9.148 1.122 11.951 2.97v5.82h-.005z"/></symbol><symbol id="icon-microsoft" viewBox="0 0 145 32"><path fill="#718087" style="fill:var(--color4, #718087)" d="M144.153 14.303v-2.524h-3.134V7.855l-.105.033-3.001.918v2.973h-4.647v-1.657a2.63 2.63 0 0 1 .512-1.755 1.8 1.8 0 0 1 1.436-.586c.471.006.935.112 1.362.31l.115.052V5.487l-.054-.02a5.294 5.294 0 0 0-1.741-.232 5.092 5.092 0 0 0-2.469.593 4.22 4.22 0 0 0-1.694 1.675 5.001 5.001 0 0 0-.6 2.457v1.82h-2.182v2.524h2.182v10.632h3.133V14.304h4.647v6.754c0 2.785 1.312 4.193 3.902 4.193a6.467 6.467 0 0 0 1.33-.147c.336-.057.661-.16.969-.307l.041-.025v-2.547l-.128.084a2.19 2.19 0 0 1-.63.272 2.41 2.41 0 0 1-.619.105 1.686 1.686 0 0 1-1.334-.486 2.613 2.613 0 0 1-.425-1.686v-6.211h3.134zm-23.2 8.384a3.326 3.326 0 0 1-2.666-1.12 4.757 4.757 0 0 1-.958-3.163 4.94 4.94 0 0 1 .958-3.247 3.27 3.27 0 0 1 2.639-1.137 3.213 3.213 0 0 1 2.57 1.087 4.848 4.848 0 0 1 .939 3.22 5.169 5.169 0 0 1-.883 3.26 3.147 3.147 0 0 1-2.6 1.1zm.139-11.23a6.865 6.865 0 0 0-5.121 1.89 7.095 7.095 0 0 0-1.85 5.158 6.717 6.717 0 0 0 1.806 4.924 6.547 6.547 0 0 0 4.848 1.819 6.68 6.68 0 0 0 5.02-1.915 7.077 7.077 0 0 0 1.851-5.106 6.892 6.892 0 0 0-1.735-4.958 6.389 6.389 0 0 0-4.817-1.808v-.002zm-12.022.002a5.664 5.664 0 0 0-3.629 1.121 3.58 3.58 0 0 0-1.414 2.921 4.085 4.085 0 0 0 .305 1.63c.211.476.531.895.936 1.223a8.114 8.114 0 0 0 1.902 1.065c.543.213 1.072.46 1.584.738.27.141.507.336.697.573.14.223.207.484.194.747 0 .883-.662 1.314-2.024 1.314a5.581 5.581 0 0 1-1.712-.313 6.457 6.457 0 0 1-1.754-.889l-.13-.093v3.016l.048.022c.533.233 1.09.405 1.661.513a8.966 8.966 0 0 0 1.773.204 6.023 6.023 0 0 0 3.832-1.128 3.646 3.646 0 0 0 1.427-2.989 3.436 3.436 0 0 0-.768-2.26 6.582 6.582 0 0 0-2.608-1.661 6.724 6.724 0 0 1-1.858-.966c-.129-.134-.229-.293-.293-.468s-.092-.36-.082-.546a1.121 1.121 0 0 1 .476-.937c.39-.27.859-.402 1.333-.376a5.474 5.474 0 0 1 1.587.244c.492.143.959.36 1.386.643l.128.088v-2.858l-.049-.021a6.887 6.887 0 0 0-1.407-.393 8.593 8.593 0 0 0-1.543-.16l.004-.003zM95.86 22.687a3.326 3.326 0 0 1-2.666-1.12 4.751 4.751 0 0 1-.957-3.159 4.94 4.94 0 0 1 .958-3.247 3.257 3.257 0 0 1 2.64-1.138 3.213 3.213 0 0 1 2.57 1.087 4.848 4.848 0 0 1 .939 3.22 5.169 5.169 0 0 1-.883 3.26 3.147 3.147 0 0 1-2.6 1.099l-.001-.002zm.141-11.227a6.864 6.864 0 0 0-5.121 1.889 7.095 7.095 0 0 0-1.851 5.158 6.717 6.717 0 0 0 1.807 4.924 6.547 6.547 0 0 0 4.848 1.819 6.68 6.68 0 0 0 5.02-1.915 7.077 7.077 0 0 0 1.851-5.106 6.895 6.895 0 0 0-1.736-4.959c-.634-.618-1.389-1.098-2.218-1.41s-1.714-.447-2.598-.398v-.002zm-11.727 2.597v-2.279h-3.095v13.156h3.095v-6.73a4.689 4.689 0 0 1 .772-2.794 2.367 2.367 0 0 1 2.003-1.057c.315.005.627.05.93.136.255.057.499.155.721.292l.13.094v-3.119l-.05-.022a3.203 3.203 0 0 0-1.212-.184 3.177 3.177 0 0 0-2.07.742 4.194 4.194 0 0 0-1.191 1.766l-.035-.001zm-8.637-2.596a7.64 7.64 0 0 0-3.763.905 6.097 6.097 0 0 0-2.482 2.553 8.124 8.124 0 0 0-.852 3.781 6.976 6.976 0 0 0 .829 3.389c.53.987 1.334 1.8 2.315 2.341a6.906 6.906 0 0 0 3.383.823c1.3.042 2.589-.26 3.736-.874l.041-.023V21.52l-.13.095a5.808 5.808 0 0 1-1.514.789 4.583 4.583 0 0 1-1.483.287 3.804 3.804 0 0 1-2.897-1.129 4.391 4.391 0 0 1-1.068-3.129 4.552 4.552 0 0 1 1.114-3.211 3.793 3.793 0 0 1 2.902-1.198 4.972 4.972 0 0 1 2.946 1.025l.13.094v-2.989l-.042-.024a5.077 5.077 0 0 0-1.432-.484 8.53 8.53 0 0 0-1.73-.185l-.002.001zm-9.227.317h-3.095v13.157h3.095V11.778zm-1.516-5.605a1.863 1.863 0 0 0-1.318.517 1.707 1.707 0 0 0-.552 1.291 1.662 1.662 0 0 0 .543 1.266c.359.334.834.515 1.325.504a1.91 1.91 0 0 0 1.33-.503 1.637 1.637 0 0 0 .554-1.266 1.75 1.75 0 0 0-.539-1.276 1.836 1.836 0 0 0-1.345-.531h.003zm-7.724 4.634v14.128h3.158V6.577h-4.371l-5.556 13.636-5.392-13.636h-4.551v18.357h2.968V10.806h.102l5.693 14.128h2.242l5.605-14.128.101.001zM15.202 15H.644V.442h14.558V15zM31.276 15H16.718V.442h14.558V15zM15.202 31.079H.644V16.521h14.558v14.558zM31.276 31.079H16.718V16.521h14.558v14.558z"/></symbol><symbol id="icon-chase" viewBox="0 0 165 32"><path fill="#718087" style="fill:var(--color4, #718087)" d="M55.443.491v12.102H38.582V.491L32.441.486v30.515h6.141v-13.11h16.861v13.11h6.151V.491h-6.151zM137.138.493v30.502h26.942l-3.412-5.37h-17.371v-7.732h16.821v-5.172h-16.821V5.737h17.342l3.343-5.244h-26.843zM9.614.484C3.226.484 0 4.367 0 10.018v11.391c0 6.539 4.158 9.592 9.582 9.592l19.267-.002-3.572-5.578H10.772c-3.081 0-4.424-1.114-4.424-4.563V10.524c0-3.334 1.13-4.634 4.506-4.634h14.574l3.43-5.406H9.614zM110.187.477c-3.689 0-7.471 2.217-7.471 7.921v1.466c0 5.946 3.638 8.214 7.278 8.23h12.777c1.327 0 2.405.221 2.405 2.463l-.002 2.591c-.034 2.015-1.039 2.476-2.449 2.476h-16.809l-3.443 5.37h20.648c4.979 0 8.359-2.477 8.359-8.199v-2.103c0-5.532-3.141-8.146-8.01-8.146h-12.2c-1.352 0-2.295-.369-2.295-2.372v-2.11c0-1.706.646-2.329 2.222-2.329l16.008-.006 3.346-5.26-20.364.007zM79.435.493 64.967 31.001h6.838l2.818-6.3h15.722l2.809 6.3h6.868L85.52.493h-6.085zm3.035 6.334 5.559 12.68H76.946l5.524-12.68z"/></symbol><symbol id="icon-buzz" viewBox="0 0 95 32"><path fill="#718087" style="fill:var(--color4, #718087)" d="M19.575 15.793c1.574.126 2.895.759 4.028 1.96s1.699 2.845 1.699 4.932c0 2.529-.818 4.616-2.518 6.133s-4.091 2.276-7.301 2.276H-.001V1.123H15.42c2.707 0 4.91.759 6.546 2.213 1.637 1.518 2.455 3.478 2.455 5.944 0 1.897-.504 3.351-1.574 4.489s-2.14 1.707-3.336 1.834l.063.19zM7.364 13.517h6.42c1.07 0 1.951-.316 2.644-.948.629-.632 1.007-1.391 1.007-2.466 0-.948-.315-1.644-.944-2.213s-1.448-.822-2.392-.822H7.364v6.45zm6.798 11.634c1.133 0 2.077-.316 2.707-.885s.944-1.391.944-2.466c0-1.012-.315-1.77-1.007-2.339-.629-.569-1.511-.885-2.518-.885H7.364v6.576h6.798zm36.633 5.944h-7.113v-2.15c-1.762 1.897-4.091 2.845-6.861 2.845-2.644 0-4.721-.885-6.294-2.592s-2.392-3.983-2.392-6.766V8.648h7.05v12.267c0 1.328.378 2.403 1.07 3.225s1.637 1.201 2.769 1.201c1.448 0 2.581-.506 3.399-1.517s1.196-2.593 1.196-4.742V8.649h7.113l.063 22.447zm21.967 0H53.879v-1.328l8.875-15.428h-8.623V8.648h18.505v1.328l-8.875 15.428h8.938v5.691h.063zm21.905 0h-18.82v-1.328l8.812-15.428h-8.623V8.648h18.505v1.328l-8.875 15.428h8.938l.063 5.691z"/></symbol><symbol id="icon-menu3" viewBox="0 0 44 32"><path d="M0 6h28v6H0V6zm0 8h28v6H0v-6zm0 8h28v6H0v-6zM31 14l6 6 6-6z"/></symbol><symbol id="icon-cross" viewBox="0 -8 46 46"><path d="M31.708 25.708 22 16l9.708-9.708a1 1 0 0 0 0-1.414L27.122.292a1 1 0 0 0-1.414-.001L16 9.999 6.292.291a.998.998 0 0 0-1.414.001L.292 4.878a1 1 0 0 0 0 1.414L10 16 .292 25.708a.999.999 0 0 0 0 1.414l4.586 4.586a1 1 0 0 0 1.414 0L16 22l9.708 9.708a1 1 0 0 0 1.414 0l4.586-4.586a.999.999 0 0 0 0-1.414z"/></symbol></defs></svg>